<svg width="338" height="338" viewBox="0 0 338 338" fill="none" xmlns="http://www.w3.org/2000/svg">
<g clip-path="url(#clip0_18_273)">
<rect width="337.838" height="337.838" rx="168.919" fill="white" style="fill:white;fill-opacity:1;"/>
<path d="M228.829 210.267H168.919H109.009H49.0991L67.2114 181.033L85.3237 151.8L97.1664 132.685L109.009 113.571H138.964H168.919H198.874H228.829L240.671 132.685L252.514 151.8L270.626 181.033L288.739 210.267H228.829Z" fill="white" style="fill:white;fill-opacity:1;"/>
<path d="M168.918 218.41H238.918M168.918 218.41H98.9185M168.918 218.41V105.428M238.918 218.41H308.918L287.756 184.253M238.918 218.41L203.918 105.428M98.9185 218.41H28.9185L50.0812 184.253M98.9185 218.41L133.918 105.428M168.918 105.428H203.918M168.918 105.428H133.918M203.918 105.428H238.918L252.756 127.761M203.918 105.428H133.918M133.918 105.428H98.9185L85.0812 127.761M266.593 150.095H71.244M266.593 150.095L252.756 127.761M266.593 150.095L287.756 184.253M71.244 150.095L85.0812 127.761M71.244 150.095L50.0812 184.253M252.756 127.761H85.0812M287.756 184.253H50.0812" stroke="#005295" style="stroke:#005295;stroke:color(display-p3 0.0000 0.3216 0.5843);stroke-opacity:1;" stroke-width="13.0863" stroke-linejoin="round"/>
</g>
<defs>
<clipPath id="clip0_18_273">
<rect width="337.838" height="337.838" fill="white" style="fill:white;fill-opacity:1;"/>
</clipPath>
</defs>
</svg>
