<svg width="290" height="76" viewBox="0 0 290 76" fill="none" xmlns="http://www.w3.org/2000/svg">
<path d="M62.7 31.4C55.6333 25.0667 49.0333 20.0333 42.9 16.3C36.1 19.8333 30.0667 25.8333 24.8 34.3C19.3333 43.0333 16.2667 51.9 15.6 60.9C26.0667 58.0333 35 50.9333 42.4 39.6C44.8667 35.7333 47.0333 31.3333 48.9 26.4L62.7 31.4C58.2333 43.9333 52.4 53.6333 45.2 60.5C37.4 67.9667 27.3333 72.8667 15 75.2L0.2 61.6C2.13333 41.0667 10.5667 24.5333 25.5 12C30.7 7.6 36.8 3.76666 43.8 0.499995C52.6667 5.03333 60.4667 10.8333 67.2 17.9L62.7 31.4ZM98.3547 59.7C91.888 65.4333 85.488 69.7667 79.1547 72.7L65.8547 61.2C67.0547 54.2667 68.688 48.2 70.7547 43C74.0214 34.5333 78.188 25.7 83.2547 16.5L94.2547 24C90.388 30.8667 87.6547 36.4 86.0547 40.6C83.6547 46.9333 81.9214 52.5333 80.8547 57.4C87.1214 54.5333 95.1547 46 104.955 31.8C107.888 27.6 110.655 23.2333 113.255 18.7L124.755 26.2C118.888 35.9333 112.755 44.4 106.355 51.6C110.288 51.4 114.855 50.7 120.055 49.5C125.255 48.3 128.821 47.4 130.755 46.8L132.955 56.9C127.221 59.9667 119.821 62.8 110.755 65.4C108.288 66.0667 106.188 66.5667 104.455 66.9L98.3547 59.7ZM150.323 50.7C147.189 50.7 144.723 50.4667 142.923 50C141.856 52.6 141.189 55.8333 140.923 59.7C152.389 59.0333 163.456 56.4667 174.123 52C177.723 50.5333 181.189 48.8 184.523 46.8L186.623 56.9C180.423 60.8333 173.089 64.3 164.623 67.3C155.623 70.5 147.123 72.3 139.123 72.7L126.723 61.2C126.723 52 129.223 43.6 134.223 36C137.823 30.7333 141.889 26.5667 146.423 23.5C151.023 20.4333 155.423 18.2333 159.623 16.9L176.523 30.9C174.856 37.8333 171.689 42.8667 167.023 46C162.356 49.1333 156.789 50.7 150.323 50.7ZM147.123 41C150.989 41 154.356 39.9333 157.223 37.8C160.556 35.2667 162.223 31.7333 162.223 27.2C155.489 30.8667 150.456 35.4667 147.123 41ZM187.831 25.2C191.031 20.8667 195.031 16.3667 199.831 11.7L209.131 18.9C208.398 21.9667 207.765 24.2 207.231 25.6C215.831 24.6667 222.031 23.7333 225.831 22.8C229.631 21.8667 232.931 21.0333 235.731 20.3L238.531 32.2C235.798 33 232.931 33.7 229.931 34.3C225.331 41.5667 221.498 49.2667 218.431 57.4C229.498 53.6 237.665 50.0667 242.931 46.8L245.131 56.9C238.998 60.9 230.965 65 221.031 69.2C217.831 70.5333 214.765 71.7 211.831 72.7L201.231 62.1C205.565 52.1667 210.198 43.6 215.131 36.4C210.465 36.8 206.331 37.0667 202.731 37.2C201.665 39.2 198.798 44.2 194.131 52.2L186.731 56.9L177.231 51.3C182.765 45.3 186.498 41.1 188.431 38.7C190.365 36.3 192.031 34.2333 193.431 32.5C191.498 30.3667 189.631 27.9333 187.831 25.2ZM267.33 25.8C273.53 25.1333 278.096 24.4 281.03 23.6L283.33 34.4C277.463 35.8667 269.996 36.7333 260.93 37C256.863 45 253.83 52.2667 251.83 58.8C257.23 57.8667 262.996 56.5333 269.13 54.8C275.263 53 281.43 50.3333 287.63 46.8L289.73 56.9C283.663 61.1 276.73 64.7 268.93 67.7C261.263 70.6333 254.463 72.3 248.53 72.7L236.13 61.2C240.063 48.1333 246.763 34.3667 256.23 19.9C259.163 15.3667 262.296 11 265.63 6.8L274.53 15C271.93 18.6 269.53 22.2 267.33 25.8Z" fill="white" style="fill:white;fill-opacity:1;"/>
</svg>
